<svg xmlns="http://www.w3.org/2000/svg" width="15.842" height="12.672" viewBox="0 0 15.842 12.672"><path d="M14.258,12.672H1.584A1.586,1.586,0,0,1,0,11.088V3.959A1.586,1.586,0,0,1,1.584,2.375h1.9a.7.7,0,0,0,.626-.45L4.6.45A.7.7,0,0,1,5.227,0h5.386a.7.7,0,0,1,.626.45l.491,1.475a.7.7,0,0,0,.625.45h1.9a1.586,1.586,0,0,1,1.585,1.584v7.129A1.586,1.586,0,0,1,14.258,12.672ZM7.92,3.167a3.96,3.96,0,1,0,3.961,3.96A3.964,3.964,0,0,0,7.92,3.167Zm5.782.791a.554.554,0,1,0,.554.554A.555.555,0,0,0,13.7,3.958ZM7.92,9.5A2.376,2.376,0,1,1,10.3,7.127,2.379,2.379,0,0,1,7.92,9.5Z" transform="translate(0 0)" fill="#fff"/></svg>