<svg xmlns="http://www.w3.org/2000/svg" width="15.208" height="14.891" viewBox="0 0 15.208 14.891"><path d="M.706,14.891h0c-.384,0-.637-.072-.693-.2-.031-.069,0-.151.08-.245A4.056,4.056,0,0,0,1.148,12a2.589,2.589,0,0,1,.724-1.73A1.581,1.581,0,0,1,3,9.8a2.334,2.334,0,0,1,1.6.74,2.263,2.263,0,0,1,.752,1.575,1.528,1.528,0,0,1-.478,1.107A6.757,6.757,0,0,1,.706,14.891ZM6.13,11.014c-.075,0-.114-.081-.143-.139l-.015-.03a3.7,3.7,0,0,0-.759-1.02,3.766,3.766,0,0,0-1.039-.747l-.029-.014c-.053-.025-.125-.058-.14-.118a.164.164,0,0,1,.046-.134c.054-.07.11-.145.17-.225A12.98,12.98,0,0,1,5.7,6.895C7.614,5.017,13.836,0,15.016,0a.2.2,0,0,1,.145.047.192.192,0,0,1,.047.142c0,1.158-5.1,7.275-7.014,9.154A13,13,0,0,1,6.475,10.8c-.083.06-.16.115-.232.169A.2.2,0,0,1,6.13,11.014Z" transform="translate(0 0)" fill="#fff"/></svg>